# Blender v2.92.0 OBJ File: ''
# www.blender.org
o ball_Cube.001
v -0.439424 -0.805858 0.879905
v -0.533321 -0.377372 0.973802
v -0.730371 -0.377372 0.451419
v -0.533321 -0.899754 0.451419
v -0.439424 0.051114 0.879905
v -0.533321 0.145011 0.451419
v -0.439424 0.051114 0.022933
v -0.533321 -0.377372 -0.070963
v -0.439424 -0.805858 0.022933
v -0.010938 -0.377372 -0.268014
v -0.010938 -0.899754 -0.070963
v -0.010938 0.145011 -0.070963
v 0.417548 0.051114 0.022934
v 0.511444 -0.377372 -0.070963
v 0.417548 -0.805858 0.022933
v 0.708495 -0.377372 0.451419
v 0.511444 -0.899754 0.451419
v 0.511444 0.145011 0.451419
v 0.417548 0.051114 0.879905
v 0.511444 -0.377372 0.973802
v 0.417548 -0.805858 0.879905
v -0.010938 -0.377372 1.170853
v -0.010938 -0.899754 0.973802
v -0.010938 0.145011 0.973802
v -0.010938 -1.096805 0.451419
v -0.010938 0.342062 0.451419
vt 0.375000 0.000000
vt 0.500000 0.125000
vt 0.375000 0.125000
vt 0.625000 0.000000
vt 0.500000 0.000000
vt 0.625000 0.250000
vt 0.500000 0.250000
vt 0.375000 0.250000
vt 0.500000 0.373264
vt 0.369792 0.369792
vt 0.666667 0.458333
vt 0.500000 0.493056
vt 0.333333 0.458333
vt 0.500000 0.625000
vt 0.368056 0.625000
vt 0.666667 0.791667
vt 0.500000 0.756944
vt 0.333333 0.791667
vt 0.500000 0.876736
vt 0.369792 0.880208
vt 0.625000 1.000000
vt 0.500000 1.000000
vt 0.375000 1.000000
vt 0.125000 0.500000
vt 0.248264 0.625000
vt 0.125000 0.625000
vt 0.244792 0.494792
vt 0.244792 0.755208
vt 0.125000 0.750000
vt 0.751736 0.625000
vt 0.631945 0.625000
vt 0.875000 0.500000
vt 0.755208 0.494792
vt 0.875000 0.750000
vt 0.755208 0.755208
vt 0.625000 0.125000
vt 0.630208 0.369792
vt 0.630208 0.880208
vt 0.875000 0.625000
vn -0.5774 -0.5774 0.5773
vn -1.0000 -0.0000 -0.0000
vn -0.7071 -0.7071 -0.0000
vn -0.5774 0.5773 0.5774
vn -0.7071 -0.0000 0.7071
vn -0.5774 0.5773 -0.5774
vn -0.7071 0.0000 -0.7071
vn -0.5773 -0.5774 -0.5774
vn 0.0000 0.0000 -1.0000
vn -0.0000 -0.7071 -0.7071
vn 0.5774 0.5773 -0.5774
vn 0.7071 0.0000 -0.7071
vn 0.5774 -0.5774 -0.5774
vn 1.0000 -0.0000 -0.0000
vn 0.7071 -0.7071 -0.0000
vn 0.5774 0.5773 0.5773
vn 0.7071 -0.0000 0.7071
vn 0.5774 -0.5774 0.5773
vn 0.0000 -0.0000 1.0000
vn -0.0000 -0.7071 0.7071
vn 0.0000 -1.0000 -0.0000
vn 0.0000 1.0000 -0.0000
vn 0.7071 0.7071 -0.0000
vn 0.0000 0.7071 -0.7071
vn -0.0000 0.7071 0.7071
vn -0.7071 0.7071 0.0000
s 1
f 1/1/1 3/2/2 4/3/3
f 5/4/4 3/2/2 2/5/5
f 3/2/2 7/6/6 8/7/7
f 3/2/2 9/8/8 4/3/3
f 9/8/8 10/9/9 11/10/10
f 7/6/6 10/9/9 8/7/7
f 10/9/9 13/11/11 14/12/12
f 10/9/9 15/13/13 11/10/10
f 15/13/13 16/14/14 17/15/15
f 13/11/11 16/14/14 14/12/12
f 16/14/14 19/16/16 20/17/17
f 16/14/14 21/18/18 17/15/15
f 21/18/18 22/19/19 23/20/20
f 19/16/16 22/19/19 20/17/17
f 22/19/19 5/21/4 2/22/5
f 22/19/19 1/23/1 23/20/20
f 9/24/8 25/25/21 4/26/3
f 15/13/13 25/25/21 11/27/10
f 25/25/21 21/18/18 23/28/20
f 25/25/21 1/29/1 4/26/3
f 13/11/11 26/30/22 18/31/23
f 7/32/6 26/30/22 12/33/24
f 26/30/22 5/34/4 24/35/25
f 26/30/22 19/16/16 18/31/23
f 1/1/1 2/5/5 3/2/2
f 5/4/4 6/36/26 3/2/2
f 3/2/2 6/36/26 7/6/6
f 3/2/2 8/7/7 9/8/8
f 9/8/8 8/7/7 10/9/9
f 7/6/6 12/37/24 10/9/9
f 10/9/9 12/37/24 13/11/11
f 10/9/9 14/12/12 15/13/13
f 15/13/13 14/12/12 16/14/14
f 13/11/11 18/31/23 16/14/14
f 16/14/14 18/31/23 19/16/16
f 16/14/14 20/17/17 21/18/18
f 21/18/18 20/17/17 22/19/19
f 19/16/16 24/38/25 22/19/19
f 22/19/19 24/38/25 5/21/4
f 22/19/19 2/22/5 1/23/1
f 9/24/8 11/27/10 25/25/21
f 15/13/13 17/15/15 25/25/21
f 25/25/21 17/15/15 21/18/18
f 25/25/21 23/28/20 1/29/1
f 13/11/11 12/33/24 26/30/22
f 7/32/6 6/39/26 26/30/22
f 26/30/22 6/39/26 5/34/4
f 26/30/22 24/35/25 19/16/16
