# Blender v2.92.0 OBJ File: ''
# www.blender.org
o upper_wing_Plane
v 1.706982 1.366603 -0.286027
v 1.869647 2.269996 -0.348638
v 1.716974 2.298219 -0.289873
v 1.277560 1.703370 -0.120740
v 0.958553 1.124172 0.002048
v 1.467727 0.569019 -0.193936
v 0.790188 0.817165 0.066853
v 1.364345 0.328477 -0.154144
v 1.059144 0.101829 -0.036670
v 0.642265 0.513268 0.123789
v 0.397337 0.010086 0.218063
v 0.498891 -0.155770 0.178975
v -1.706982 1.366603 -0.286027
v -1.277560 1.703370 -0.120740
v -1.716974 2.298219 -0.289873
v -1.869647 2.269996 -0.348638
v -1.467727 0.569019 -0.193936
v -0.958553 1.124172 0.002048
v -1.364345 0.328477 -0.154144
v -0.790188 0.817165 0.066853
v -1.059144 0.101829 -0.036670
v -0.498891 -0.155770 0.178975
v -0.397337 0.010086 0.218063
v -0.642265 0.513268 0.123789
vt 0.000000 0.000000
vt 1.000000 1.000000
vt 0.000000 1.000000
vt 0.000000 1.000000
vt 0.000000 0.000000
vt 0.000000 1.000000
vt 0.000000 0.000000
vt 0.000000 0.000000
vt 0.000000 1.000000
vt 0.000000 0.000000
vt 0.000000 0.000000
vt 1.000000 1.000000
vt 1.000000 0.000000
vt 0.000000 1.000000
vt 0.000000 1.000000
vt 0.000000 0.000000
vt 0.000000 1.000000
vt 0.000000 0.000000
vt 0.000000 1.000000
vt 0.000000 1.000000
vt 0.000000 0.000000
vt 1.000000 0.000000
vt 0.000000 1.000000
vt 0.000000 0.000000
vn 0.3592 0.0000 0.9333
vn -0.3592 0.0000 0.9333
s 1
f 1/1/1 3/2/1 4/3/1
f 1/1/1 5/4/1 6/5/1
f 6/5/1 7/6/1 8/7/1
f 9/8/1 11/9/1 12/10/1
f 7/6/1 9/8/1 8/7/1
f 13/11/2 15/12/2 16/13/2
f 13/11/2 18/14/2 14/15/2
f 17/16/2 20/17/2 18/14/2
f 21/18/2 23/19/2 24/20/2
f 21/18/2 20/17/2 19/21/2
f 1/1/1 2/22/1 3/2/1
f 1/1/1 4/3/1 5/4/1
f 6/5/1 5/4/1 7/6/1
f 9/8/1 10/23/1 11/9/1
f 7/6/1 10/23/1 9/8/1
f 13/11/2 14/15/2 15/12/2
f 13/11/2 17/16/2 18/14/2
f 17/16/2 19/21/2 20/17/2
f 21/18/2 22/24/2 23/19/2
f 21/18/2 24/20/2 20/17/2
